<svg width="95" height="32" viewBox="0 0 95 32" fill="none" xmlns="http://www.w3.org/2000/svg">
<g id="Group">
<path id="Vector" d="M71.2023 19.5932C72.8854 19.4356 72.8071 19.9872 73.3551 19.7508C73.4334 19.7508 73.5116 19.9084 73.5116 20.066C73.5899 19.8296 73.3159 20.6177 73.3551 20.46C73.1202 20.3812 72.8854 20.3812 72.6505 20.6177C72.5723 20.6965 72.5723 20.8541 72.494 21.0905C73.2377 21.3269 74.999 21.0905 75.273 21.8785C75.2338 22.5089 75.0773 22.4301 74.3727 22.5877C74.3727 22.7453 74.2945 22.6665 74.8033 22.9029C74.9207 23.2181 74.8424 23.2181 73.8639 23.2181C73.3942 23.2181 73.2768 22.6665 72.768 22.7453C72.494 22.8241 72.2591 22.4301 71.9851 22.5877L71.2023 19.5932ZM73.2376 16.0472C73.3551 16.0472 73.4333 15.9684 73.5116 16.2836C73.5116 16.3624 73.4725 16.4412 73.4334 16.4412L73.2376 16.0472ZM71.398 10.8463C72.4548 11.0827 73.4725 10.9251 74.5293 11.0827C74.8816 11.1615 74.8424 11.1615 74.8033 11.7919C75.547 12.5011 77.3083 12.1071 78.3651 12.5799C77.9737 12.6587 77.7389 12.8951 77.5432 12.8163C77.23 12.6587 76.956 12.8951 76.7603 13.4467C76.1341 13.4467 75.8992 13.1315 75.3121 13.2891C75.2338 13.2891 75.1556 13.2891 75.0773 13.2103C74.4902 12.5799 73.3159 12.9739 72.9245 12.7375C72.4157 12.4223 71.9069 12.6587 71.398 12.5799V10.8463ZM8.85085 24.2425C8.88999 24.3213 9.00741 24.0061 9.00741 23.9273C9.00741 23.7697 8.92913 23.5333 8.85085 23.4545C8.81171 23.4545 8.85085 23.4545 8.65515 23.4545C8.57687 23.2969 8.4203 22.7453 8.06803 22.7453C7.12865 22.8241 6.18927 22.3513 5.24989 22.6665C4.85848 22.7453 4.7802 22.1937 4.07566 22.9029C3.21456 22.1149 2.27518 22.2725 1.25751 22.3513C1.14009 22.3513 1.10095 22.3513 0.826965 21.7997C1.14009 21.4057 1.5315 21.7997 1.80549 21.5633C2.04033 20.9329 1.68806 20.066 2.1969 19.9084C2.35346 19.8296 2.15776 19.9084 3.21456 19.7508C3.41027 19.1992 3.33198 18.1748 3.01886 18.096C2.1969 17.8596 3.058 18.2536 0.20071 17.5444C0.00500576 17.4656 -0.0732761 16.8352 0.0832876 16.7564C0.435556 16.52 0.552979 16.5988 1.29666 16.5988C1.25751 16.2836 1.10095 16.3624 1.02267 16.2048C0.944388 16.0472 0.944388 15.8896 1.02267 15.6532C2.82315 15.2592 2.23604 15.1016 3.48855 15.1016C4.07566 15.1016 4.66277 14.7076 5.24989 14.4712C6.42412 13.9195 6.18927 14.7076 6.65896 14.3924C7.12865 14.0772 7.32436 15.0228 7.83319 14.2348L7.87233 14.3136C7.75491 14.2348 7.71576 13.9984 7.63748 13.9195C7.44178 13.8407 6.89381 14.156 6.18927 13.6831C5.56301 13.2103 5.13246 13.6831 4.93676 13.2891C5.13246 12.9739 5.36731 13.2103 5.56301 13.1315C5.75872 13.0527 5.91528 12.9739 6.11099 12.9739C6.22841 11.7131 5.48473 12.0283 5.32817 11.8707C4.70191 11.3191 4.34965 11.6343 3.41027 11.7131C3.13628 11.1615 3.33198 11.3191 2.43174 11.2403C2.11861 11.2403 2.27518 10.5311 2.3926 10.4523C3.17542 9.90069 2.86229 10.6887 3.21456 9.66428C3.64511 8.87627 7.59834 10.0583 8.4203 9.03387C8.61601 8.79747 8.73343 8.95507 10.6513 9.11268C11.4342 9.19148 11.4342 9.58548 12.0995 9.50668C13.8217 9.27028 13.5478 9.50668 13.7435 8.79747C14.7611 7.85186 15.27 8.63987 16.6399 7.85186C16.7965 7.77306 16.953 7.77306 17.1096 7.69425C17.1096 7.37905 17.0313 7.37905 16.9922 7.37905C15.5048 7.14265 12.3735 7.77306 11.7864 7.30025C11.8256 7.14265 11.8256 6.98504 11.8647 6.98504C12.1387 6.82744 12.4518 6.59104 12.7258 6.66984C13.4695 6.90624 13.4695 6.74864 16.679 6.59104C17.6967 6.59104 17.3053 5.96063 18.2838 6.19703C19.8103 6.51224 24.9378 5.88183 26.2294 6.59104C26.4251 6.66984 26.66 6.74864 26.8557 6.66984C27.0905 6.59104 27.3254 6.74864 27.6385 6.82744C28.343 6.35463 28.617 6.11823 28.9301 6.43343C29.0867 6.59104 29.2433 6.19703 29.6347 6.35463C31.2395 6.74864 31.7091 6.27583 31.944 6.35463C32.4528 6.66984 32.9225 6.35463 33.0008 6.43343C33.4313 6.98504 34.6447 5.96063 36.0538 6.82744C39.8504 4.77861 31.9831 5.64542 14.448 5.88183C13.9 5.88183 12.3735 6.19703 11.6299 6.11823C10.8862 6.03943 8.10717 6.03943 7.12865 6.43343C7.05037 6.59104 6.97209 6.66984 6.93295 6.74864C6.18927 6.19703 5.05418 6.74864 4.27137 6.43343C4.31051 6.35463 4.34965 6.19703 4.34965 6.19703C5.01504 6.27583 5.68044 5.80303 6.34583 5.80303C6.73724 5.80303 6.6981 5.25142 7.59834 5.33022C8.53772 5.48782 8.53772 5.09381 10.3382 5.17262C11.395 5.25142 11.1602 5.33022 11.943 4.227C12.4127 4.227 12.2953 4.0694 12.5692 4.85741C14.1349 5.01501 36.2103 4.4634 36.2103 4.4634C36.7975 4.4634 36.6018 3.9906 37.5411 3.9906C39.459 3.9906 43.1774 3.9906 46.1521 3.9906C46.4261 3.9906 46.7001 3.75419 46.935 3.833C47.2089 3.9118 47.4829 3.83299 47.7178 3.75419C48.3049 3.59659 48.3049 3.9906 48.9311 3.9906C53.7846 3.9906 53.6281 4.1482 53.6672 3.43899C53.4324 3.20259 53.1975 3.36019 52.9627 3.36019C52.1016 3.20259 52.767 3.83299 51.5144 3.28139C51.4753 3.28139 51.4362 3.12378 51.3579 3.12378C51.397 3.04498 51.397 2.96618 51.4362 2.96618C53.7455 2.65098 53.902 3.20259 55.3111 3.20259C56.9159 3.20259 56.9159 3.12378 57.1116 3.75419C57.8944 3.9118 57.5421 3.9118 57.9336 4.1482C58.7947 4.69981 58.6772 4.4634 59.7732 4.54221C60.556 4.54221 60.4386 4.77861 60.9474 4.93621C61.1823 5.01501 61.4171 4.93621 61.6519 5.01501C62.7479 5.64542 63.061 4.85741 64.9789 5.40902C65.2529 5.09381 65.566 4.85741 65.8792 5.33022C65.84 5.17262 65.9183 5.48782 65.9183 5.64542C65.9966 6.90624 67.9145 5.40902 68.619 6.27583C69.0496 6.82744 69.5193 6.27583 70.2629 5.96063C70.6152 5.88183 71.3197 6.03943 71.1632 6.82744C70.8109 7.22145 70.6152 6.82744 68.4233 6.98504C68.5407 7.37905 68.3842 7.06384 71.2415 7.30025C74.3336 7.53665 74.3727 7.22145 75.1947 7.53665C75.3904 7.61545 74.7641 7.53665 77.778 7.53665C81.4572 7.61545 82.3966 8.95507 86.0367 8.32466C86.4281 7.30025 86.4673 7.45785 87.0935 7.45785C87.4849 8.16706 87.4849 8.16706 87.8764 8.24586C88.346 8.40346 89.7943 8.24586 89.7943 8.24586C90.4988 8.08826 90.1857 8.48227 92.9255 8.40347C95.0783 8.32466 94.6869 8.40346 95 8.56107C95 8.79747 95 9.03387 94.9217 9.03387C94.4129 9.19148 91.8687 9.27028 91.2425 9.42788C91.1642 9.42788 91.125 9.66428 91.0859 9.74309C91.125 10.4523 91.399 10.4523 91.7122 10.7675C86.8195 10.9251 88.3069 10.7675 88.1895 11.5555C87.7981 11.9495 87.2892 11.6343 87.4067 13.0527C87.5241 13.1315 87.6415 13.2891 87.7589 13.3679C87.8764 13.9195 87.4458 13.8407 87.3284 14.3136C87.6024 14.4712 87.8372 14.7076 88.0329 15.1804C88.1895 15.5744 88.5026 15.5744 88.5417 16.4412C88.62 16.126 88.6983 15.8896 88.7374 15.6532C88.894 16.52 88.7374 16.0472 89.4028 16.914C89.5203 17.0716 89.5985 17.308 89.5985 17.702C89.6377 17.6232 89.7551 17.6232 88.8157 17.9384C88.6983 18.096 88.5417 18.2536 88.5417 18.8052C88.9332 19.3568 88.7374 19.3568 89.99 19.278C90.0682 19.278 90.1074 19.1992 90.2248 19.0416C90.1857 18.6476 90.1465 18.3324 90.1074 18.096C90.1074 18.096 91.947 18.1748 92.1818 18.3324C92.2601 18.3324 92.3384 18.5688 92.2993 18.7264C92.221 19.1204 92.221 19.0416 91.3207 19.278C90.9685 19.3568 91.0076 19.278 91.0076 20.2236C90.8119 20.6177 90.5771 20.066 90.3422 20.3812C90.3814 20.5388 90.4205 20.6965 90.4596 20.7753C90.8902 21.3269 90.7728 20.8541 90.8902 21.5633C90.1074 22.0361 89.5203 21.0905 89.4811 22.0361C89.4811 22.7453 89.4811 22.7453 89.2071 23.0605C88.5417 21.9573 88.7766 22.1149 88.2286 22.2725C88.0721 23.1393 88.0721 23.4545 87.6806 23.3757C84.7059 22.6665 85.7236 22.1937 84.3537 22.7453C84.2754 23.0605 84.3145 23.2181 84.432 23.3757V23.2969L8.85085 24.2425ZM6.07185 26.4489C6.11099 26.3701 6.15013 26.3701 5.60216 26.4489V26.5277C5.24989 25.3457 2.66659 26.8429 1.60978 25.5033C1.68806 25.1881 1.68806 25.1093 1.76635 25.0305C4.07566 24.7153 4.38879 25.3457 5.13246 24.7941C5.13246 24.5577 5.13246 24.4001 5.09332 24.1637C5.36731 23.8485 5.68044 24.0849 5.95442 24.1637L6.07185 26.4489ZM72.5331 23.3757C73.0028 23.3757 72.6505 23.2969 74.0596 23.7697C74.2162 24.0061 74.2553 24.4001 74.2945 24.7153C74.2553 25.1093 74.1379 25.2669 74.0205 25.3457C72.768 25.5821 72.6114 25.3457 73.3942 25.7397C73.4333 26.0549 73.3942 26.1337 73.3159 26.1337C72.6897 26.1337 72.0634 26.0549 71.4763 25.7397C70.8892 26.2125 71.4372 26.0549 68.5799 26.2125C68.6582 26.5277 68.7756 26.4489 68.8539 26.5277C69.8715 27.0005 69.8324 27.0794 69.8715 27.1582L72.5331 23.3757ZM25.564 8.32466C25.6032 8.40346 25.6423 8.48227 25.6814 8.48227C25.9163 8.48227 25.8771 8.16706 25.9554 8.08826C25.8771 8.32466 25.7206 8.08826 25.564 8.32466ZM54.176 3.75419V3.59659C54.3717 4.1482 54.8414 3.9118 55.0371 3.833C54.724 3.75419 54.45 3.67539 54.176 3.75419ZM5.91528 17.4656C5.79786 17.3868 5.71958 17.0716 5.56301 17.3868C5.71958 17.5444 5.837 17.4656 5.91528 17.4656C5.87614 18.49 6.97209 18.4112 6.97209 18.9628C6.97209 19.3568 7.05037 19.672 7.20693 19.672C7.75491 19.8296 8.26374 19.9872 8.81171 19.7508C8.85085 19.7508 8.88999 19.5932 8.92913 19.5144C8.57687 18.8052 8.61601 19.0416 8.77257 18.7264C8.96827 18.4112 8.96827 18.3324 8.85085 17.702C7.01123 17.1504 6.54154 16.9928 5.91528 17.4656ZM83.5708 23.9273V24.0061C83.4143 23.6121 83.7666 23.3757 83.7274 22.9817C83.4534 22.7453 83.2186 22.4301 82.9837 22.1937C82.5923 22.1149 82.0052 22.5089 81.379 22.0361C81.2615 21.9573 80.3222 21.9573 79.6176 21.9573C79.5785 21.9573 79.5393 22.0361 79.5002 22.1149C79.5393 22.3513 79.5393 22.5877 79.5785 22.9029C78.8348 23.3757 78.6782 22.2725 77.1126 22.2725C76.1341 22.2725 75.1164 22.4301 74.1379 21.9573C73.4334 21.9573 72.7288 21.9573 72.0634 22.1149C72.8071 22.2725 73.3942 22.1149 73.5899 22.3513C73.9813 22.7453 74.2553 22.6665 76.0558 22.7453C76.8386 22.7453 76.2906 23.1393 77.504 23.0605C78.4825 22.9817 78.3651 23.7697 79.2262 23.8485C79.3828 23.8485 80.2439 24.0849 80.3222 23.5333C80.4396 22.5089 80.7527 22.5877 81.1441 22.8241C80.9875 23.4545 81.0267 23.2969 80.8701 23.5333C80.831 23.6121 80.7527 23.6121 80.7527 23.8485C80.9093 23.8485 81.0658 23.9273 81.2615 23.9273C82.4749 23.9273 82.9446 25.0305 83.5708 23.9273ZM38.7545 8.40347C38.7936 8.16706 38.7154 8.00946 38.6371 8.00946C38.4414 7.93066 38.2065 7.85186 38.0108 7.93066C37.6586 8.08826 36.3278 7.69425 35.4275 7.93066C34.175 8.24586 33.8228 7.93066 33.0791 8.32466C34.449 8.87627 34.6838 8.40346 35.3101 8.87627C35.8189 9.19148 36.5626 8.87627 37.6194 8.95507C38.05 8.95507 38.4022 8.79747 38.7545 8.40347ZM77.6214 11.7131C80.9484 11.9495 77.3866 11.6343 82.2401 11.7919C83.4143 11.8707 82.9446 11.5555 83.6491 11.3979C83.7274 11.3979 83.7274 11.3979 83.8448 11.0827C83.7274 11.0827 83.61 11.0039 83.5317 11.0039C79.0305 11.0827 79.0696 10.8463 77.6214 11.7131ZM85.0191 17.702C85.2931 18.5688 85.6845 18.096 86.0367 18.5688C86.3107 19.3568 86.115 19.1992 86.937 19.4356C87.1327 19.0416 87.2892 18.8052 87.4849 18.49C87.4849 18.3324 87.4067 17.702 87.211 17.6232C86.4673 17.3868 85.7627 17.4656 85.0191 17.702ZM84.8625 12.1859C84.7451 12.1859 84.6277 12.5799 84.6668 12.8951C84.7059 13.3679 84.7059 13.2891 86.663 13.3679C86.7021 13.3679 86.7413 13.2891 86.8195 13.2103C86.663 12.0283 86.8978 12.1859 84.8625 12.1859ZM83.8057 12.8951C83.7274 12.6587 83.6491 12.4223 83.5317 12.4223C82.9837 12.3435 82.4749 12.3435 81.9661 12.5799C81.8486 12.6587 81.8095 12.8163 81.7704 13.1315C81.7312 13.5255 83.6491 13.2103 83.6491 13.2103C83.6883 13.2103 83.7666 13.0527 83.8057 12.8951ZM19.6537 8.71867C18.7926 8.56107 17.9707 8.95507 17.1487 8.95507C13.9783 8.95507 15.6614 9.90069 19.458 8.95507C19.5363 8.95507 19.5755 8.79747 19.6537 8.71867ZM70.4586 24.8729C71.0849 25.1093 71.124 24.8729 71.398 25.0305C71.8677 25.2669 72.2983 25.1093 72.7288 24.9517C72.768 24.9517 72.768 24.8729 72.8071 24.7941L70.4586 24.8729ZM29.9869 8.32466C29.439 8.00946 29.3607 8.32466 28.6561 8.16706C27.6385 8.00946 27.5993 8.32466 27.0514 8.00946C26.8165 7.93066 26.5817 7.93066 26.3468 8.08826C26.3468 8.08826 26.3077 8.16706 26.3077 8.24586C26.4251 8.63987 26.3077 8.56107 29.713 8.48227C29.7912 8.48227 29.8695 8.40346 29.9869 8.32466ZM14.0175 22.9029C13.7435 22.8241 13.4695 22.6665 13.3129 23.3757C13.2346 23.6909 13.1172 23.4545 13.1172 24.0849C13.1172 24.3213 13.7435 24.3213 14.0566 24.2425C14.0566 23.2181 14.0566 23.6121 14.0175 22.9029ZM15.9354 12.5011C16.8747 12.6587 17.8533 12.7375 18.7926 12.4223C17.8141 12.2647 16.8747 12.2647 15.9354 12.5011ZM8.53772 12.8951C8.06803 12.4223 7.79405 11.9495 7.3635 12.2647C7.24607 12.3435 7.16779 12.5799 7.16779 12.8163C7.16779 13.1315 7.20693 13.1315 8.30288 13.0527C8.38116 13.0527 8.4203 12.9739 8.53772 12.8951ZM8.53772 16.126C8.38116 15.9684 8.65515 15.9684 7.05037 15.8108C6.42411 15.732 6.65896 16.3624 6.65896 16.3624C7.05037 16.4412 8.02889 16.3624 8.53772 16.126ZM74.8816 18.0172C74.9598 19.1204 75.4687 18.6476 75.8992 18.49C75.9775 18.49 75.8992 18.096 75.8601 18.0172C75.5078 17.9384 75.1947 17.9384 74.8816 18.0172ZM8.92913 12.9739C9.32054 12.8951 9.79023 13.0527 9.51625 11.9495C9.20312 11.9495 9.39882 11.7919 8.92913 12.9739ZM25.2118 8.32466C23.2547 8.24586 23.2547 8.48227 24.9378 8.56107C24.9769 8.56107 25.0552 8.48227 25.2118 8.32466ZM13.4695 22.1937C13.9 22.3513 13.9 22.3513 14.1349 22.1149C13.9783 21.7209 13.7826 21.6421 13.5478 21.7997C13.5086 21.7997 13.5086 22.0361 13.4695 22.1937ZM76.2515 11.7131C75.9384 11.7131 75.6644 11.4767 75.3904 11.7131C75.6644 11.7131 75.9384 11.7131 76.2515 11.7131ZM42.238 5.48782C42.2772 5.56662 42.1989 5.56662 42.9426 5.56662C42.9426 5.48782 43.06 5.48782 42.238 5.48782ZM62.9045 6.27583C63.1393 6.43343 63.4133 6.35463 63.6481 6.35463C63.609 6.27583 63.6873 6.27583 62.9045 6.27583ZM12.1387 14.156C12.4127 14.3136 12.6475 14.3924 12.9215 14.2348C12.9606 14.2348 12.9606 14.0772 12.9998 13.9984C13.0389 13.8407 12.6475 13.6831 12.2561 13.9195C12.217 13.9195 12.1778 13.9984 12.1387 14.156ZM15.1525 22.1937C15.1134 21.7209 15.0743 21.6421 14.9177 21.5633C14.8394 21.5633 14.7611 21.5633 14.722 21.7997C14.6437 22.1149 14.9568 22.5089 15.1525 22.1937ZM89.0506 20.2236C89.7551 20.3024 89.6377 20.3812 89.716 20.1448C89.4811 19.9872 89.2463 19.9084 89.0506 20.2236ZM56.955 5.48782C57.1507 5.56662 57.3464 5.96063 57.503 5.48782C57.3073 5.48782 57.1116 5.48782 56.955 5.48782ZM66.2314 7.22145C66.4271 7.14265 66.5837 7.37905 66.7794 7.06384C66.6228 7.06384 66.4663 6.98504 66.2314 7.22145ZM44.0385 5.88183C43.882 5.33022 43.7645 5.88183 43.8037 5.96063C43.9602 6.03943 43.9602 5.96063 44.0385 5.88183ZM79.6568 18.5688C79.5785 18.4112 79.4611 18.3324 79.3436 18.5688C79.4611 18.5688 79.5785 18.5688 79.6568 18.5688ZM16.7182 10.9251C16.6399 10.6887 16.5225 10.6099 16.3659 10.8463C16.5225 10.9251 16.6399 10.9251 16.7182 10.9251ZM5.05418 16.126C5.05418 16.0472 5.01504 15.8108 4.85848 15.8108C4.66277 15.732 4.70191 16.126 4.81934 16.126C4.89762 16.126 4.9759 16.126 5.05418 16.126ZM81.3007 17.7808C81.4181 17.8596 81.5355 17.9384 81.6529 17.7808C81.5355 17.6232 81.4181 17.6232 81.3007 17.7808ZM20.3191 8.79747C20.1234 8.71867 20.1626 8.71867 20.0843 8.71867C20.1626 8.87627 20.2017 8.95507 20.3191 8.79747ZM77.8563 18.096C77.778 18.096 77.8171 18.096 77.8563 18.096C77.778 18.096 77.8171 18.096 77.8563 18.096ZM11.669 11.0039C11.669 11.0827 11.6299 11.0827 11.6299 11.1615C11.5907 11.8707 11.7864 11.4767 11.669 11.0039ZM74.0205 23.7697C73.8248 23.6909 73.903 23.6909 73.8248 23.7697C73.903 23.7697 73.9813 23.7697 74.0205 23.7697ZM74.6467 23.7697C74.5684 23.7697 74.6076 23.7697 74.6467 23.7697C74.5684 23.7697 74.6076 23.7697 74.6467 23.7697ZM41.7684 5.56662C41.6901 5.56662 41.6901 5.56662 41.7684 5.56662V5.56662ZM17.8924 7.61545C17.8141 7.53665 17.8533 7.53665 17.8533 7.61545H17.8924ZM22.1979 8.40347C22.1588 8.40347 22.1588 8.40347 22.1979 8.40347V8.40347ZM66.8968 8.40347C66.9751 8.40347 66.9751 8.40347 66.8968 8.40347V8.40347ZM10.7688 12.8951V12.8163C10.6905 12.8163 10.6905 12.8951 10.7296 12.9739C10.7296 12.9739 10.7296 12.8951 10.7688 12.8951ZM5.44559 16.0472C5.36731 16.126 5.36731 16.126 5.44559 16.126V16.0472ZM16.0919 17.2292C16.0136 17.2292 16.0136 17.308 16.0528 17.3868C16.0528 17.3868 16.0919 17.3868 16.1311 17.3868C16.1311 17.308 16.1311 17.308 16.0919 17.2292ZM16.679 17.2292V17.308C16.7573 17.3868 16.8356 17.2292 16.7182 17.1504C16.7182 17.2292 16.7182 17.2292 16.679 17.2292ZM84.1971 17.7808C84.2754 17.702 84.2754 17.7808 84.1971 17.7808V17.7808ZM77.2692 18.1748C77.2692 18.1748 77.2692 18.096 77.23 18.096C77.1517 18.096 77.1517 18.1748 77.1909 18.1748C77.23 18.1748 77.2692 18.1748 77.2692 18.1748ZM78.4434 18.5688C78.3651 18.49 78.3651 18.49 78.3651 18.5688H78.4434ZM84.4711 18.49C84.5494 18.5688 84.5494 18.5688 84.5494 18.49H84.4711ZM87.1718 22.2725C87.1718 22.1937 87.1718 22.1149 87.0935 22.1149L87.0544 22.1937C87.0935 22.1937 87.1327 22.1937 87.1718 22.2725ZM88.3069 16.3624C88.2678 16.52 88.2678 16.4412 88.346 16.4412L88.3069 16.3624ZM11.9821 11.1615C11.943 11.3191 11.943 11.2403 11.9821 11.2403V11.1615Z" fill="#ECB942"/>
<path id="Vector_2" d="M19.1449 23.8484C19.2623 23.3756 19.3015 23.3756 21.9239 23.3756C22.2762 23.3756 23.2156 23.4544 23.2156 23.4544C24.2332 24.0848 25.564 23.612 26.1511 24.006C26.112 24.4788 25.8771 24.1636 25.7989 24.5576C25.8771 24.6364 25.9163 24.7152 25.9946 24.7152C26.9339 24.6364 27.2079 24.4 27.4036 24.8728C27.2471 25.188 27.0514 25.1092 26.8557 25.1092C26.1511 24.9516 25.4074 25.2668 24.7029 25.1092C23.881 24.8728 23.5678 25.5821 22.3936 25.5821C21.4934 25.5821 21.1802 25.5821 20.7497 26.1337C20.6714 26.3701 20.6323 26.9217 20.3974 26.8429C19.4189 26.5277 18.4404 27.1581 18.2447 26.9217C18.1664 26.4489 18.3229 26.0549 18.4012 25.5821C18.5186 25.3457 18.6752 25.0304 18.8318 24.794C18.9492 24.5576 19.0275 24.0848 19.1449 23.8484C19.184 24.0848 19.1449 24.3212 19.2623 24.4788C19.3797 24.4788 19.4972 24.6364 19.6146 24.4788C19.458 24.2424 19.3015 24.006 19.1449 23.8484ZM20.1626 24.4788C20.7888 24.4 20.9454 24.8728 21.6891 24.2424C21.7282 24.2424 21.7282 24.0848 21.7282 23.9272C20.0451 23.8484 20.28 23.9272 20.1626 24.4788Z" fill="#ECB942"/>
<path id="Vector_3" d="M60.83 23.2181C61.6911 22.9029 61.6519 23.3757 62.0042 23.2969C62.4739 23.1393 63.2958 23.6909 63.4916 23.6121C63.7264 23.4545 63.9612 23.8485 64.1961 23.6909C64.4309 23.5333 64.8615 24.0061 65.2137 24.0849C65.4486 24.0849 65.6834 24.3213 65.9183 24.4789C65.9574 24.5577 65.9966 24.7154 66.0357 24.9518C65.3312 25.9762 64.5092 24.7154 63.335 25.0306C61.5345 25.5034 55.9374 24.6366 55.1545 24.2425C55.1545 24.0849 55.1545 23.9273 55.1937 23.7697C55.6242 23.5333 57.0724 23.4545 58.2467 23.8485C59.4992 24.3213 59.8514 24.2425 60.282 23.6909C60.2429 23.5333 60.3211 24.0061 60.4777 24.0849C61.1431 24.1637 60.7908 23.9273 61.0257 24.2425C61.0257 24.2425 61.0648 24.2425 61.0648 24.1637C60.9082 23.9273 60.9474 24.0849 60.83 23.2181Z" fill="#ECB942"/>
<path id="Vector_4" d="M13.6652 3.91223C13.8218 3.67572 14.0175 3.75455 14.2132 3.75455C15.7788 3.91223 21.8065 2.96617 25.3292 2.88733C25.4857 2.88733 25.6423 2.88733 25.7989 3.12385C25.7597 3.20268 25.7597 3.20268 25.7206 3.28152C22.9416 4.38526 22.7459 3.36036 22.0413 3.99107C13.3912 4.62178 13.8609 4.62178 13.6652 3.91223Z" fill="#ECB942"/>
<path id="Vector_5" d="M33.9011 3.04516C33.8619 3.28167 33.8228 3.51819 33.7836 3.51819C33.6662 3.59702 33.5096 3.7547 33.3922 3.67586C32.6877 3.36051 31.9831 3.67586 31.3178 3.59702C30.6524 3.51819 29.987 3.59702 29.3216 3.59702C28.8519 3.59702 28.4996 3.20283 27.4819 3.59702C27.4037 3.59702 27.0514 3.51819 27.0514 3.36051C27.0514 2.17794 27.4819 2.49329 31.7092 2.57213C32.9617 2.65097 33.3139 2.41445 33.9011 3.04516Z" fill="#ECB942"/>
<path id="Vector_6" d="M45.7999 21.7997C46.5827 21.9573 47.4046 22.2725 48.1875 22.7453C48.2657 22.7453 48.3049 22.9817 48.3832 23.0605C48.4223 22.9817 48.5006 22.9817 47.7961 23.2181C48.0309 23.9273 48.344 23.7697 48.618 24.0061C48.892 24.2425 49.166 24.2425 49.44 24.3213C49.4791 24.7153 49.4008 24.8729 49.3226 25.0305C49.0877 26.0549 49.7922 26.4489 47.0524 24.7153C46.8175 24.5577 46.5827 24.3213 46.3478 24.1637C46.2696 23.3757 46.3478 23.6121 46.0347 23.2181C46.0347 22.9817 45.9173 23.0605 46.7001 22.9029C46.4653 22.2725 46.2304 22.3513 45.839 22.0361C45.839 22.0361 45.839 21.6421 45.7999 21.7997Z" fill="#ECB942"/>
<path id="Vector_7" d="M89.3246 5.56656C89.0114 5.96056 87.4458 6.19697 87.4458 6.19697C87.3284 6.43337 87.2501 6.59097 87.1718 6.74857C87.0153 6.74857 86.937 6.35457 86.7413 6.19697C85.3322 6.11816 85.0582 6.35457 84.1971 5.56656C84.1971 5.17255 84.2363 5.09375 84.3537 5.09375C84.5102 5.09375 88.1895 5.09375 88.1895 5.09375C89.0897 5.09375 89.2463 5.48776 89.3246 5.56656Z" fill="#ECB942"/>
<path id="Vector_8" d="M44.1951 22.5089C43.8037 22.5877 43.4123 22.6665 42.9817 22.7453C43.0209 23.5333 43.9211 23.0605 44.2342 23.6909C43.7646 24.1637 41.8858 23.9273 41.2204 23.5333C40.6333 23.2181 40.6724 23.6909 40.3984 22.9817C40.0853 22.1937 41.4161 22.1937 41.8858 22.1149C42.6686 22.1149 43.4514 22.0361 44.1951 22.5089ZM41.4552 22.8241C41.6118 23.2181 41.8075 23.0605 41.9641 22.9029C41.8075 22.5877 41.6509 22.5089 41.4552 22.8241Z" fill="#ECB942"/>
<path id="Vector_9" d="M90.8119 14.7076C90.6554 14.4712 90.4988 14.156 90.3422 14.0772C90.1074 13.9984 89.99 14.7864 89.7551 14.6288C89.6768 14.55 89.6768 14.55 89.6768 13.9984C89.3637 13.9196 89.0897 13.9196 88.8549 14.3924C88.4243 13.9984 88.2286 13.9984 88.3852 13.4468C89.8334 13.2104 91.6339 13.368 92.0253 13.4468C92.0644 13.6044 92.1036 13.6832 92.1036 13.8408C92.1427 14.2348 91.5947 14.0772 91.947 15.0228C91.8687 14.8652 92.0253 15.1804 91.6339 15.5744C91.3208 15.4956 90.9685 15.338 90.6554 15.2592C90.7728 14.944 90.8902 14.3136 90.8119 14.7076Z" fill="#ECB942"/>
<path id="Vector_10" d="M43.4514 3.75454C43.1383 3.43919 43.1383 3.43919 43.06 2.96617C43.4514 2.88733 48.9312 2.80849 49.7531 3.045C48.6572 3.67571 49.2443 3.43919 48.3832 3.36036C45.8782 3.20268 45.2519 3.51803 44.1951 3.36036C43.9211 3.43919 43.6863 3.51803 43.4514 3.75454Z" fill="#ECB942"/>
<path id="Vector_11" d="M13.3521 23.1396C13.2347 22.3512 12.8041 22.1147 16.5225 22.5089C16.6008 22.7454 16.5225 22.9031 16.4442 22.9031C15.8962 23.1396 13.8218 23.3762 13.3521 23.1396Z" fill="#ECB942"/>
<path id="Vector_12" d="M35.9364 24.2426C36.7583 23.6907 36.8758 24.4791 37.0715 24.2426C37.5411 23.7695 38.3631 24.1637 39.3416 24.4791C39.3808 24.4791 39.3808 24.6368 39.4199 24.7944C39.3025 25.031 36.7192 24.8733 36.0147 24.4791C36.0147 24.5579 35.9755 24.4002 35.9364 24.2426Z" fill="#ECB942"/>
<path id="Vector_13" d="M13.0781 26.213C13.2738 26.1341 13.4303 26.0553 13.626 25.9765C13.626 25.9765 13.9392 24.6362 14.1349 25.8188C14.4089 25.9765 14.6828 25.8976 14.9177 25.8188C15.5439 25.5823 16.8356 25.5034 17.1879 25.8188C15.8179 26.3706 14.448 26.686 13.0781 26.213Z" fill="#ECB942"/>
<path id="Vector_14" d="M51.8667 0.12915C53.041 0.760153 54.2152 0.760153 48.2266 0.760153C48.3832 0.444651 48.5006 0.602402 48.618 0.602402C51.4362 0.523527 50.7708 0.760153 51.8667 0.12915Z" fill="#ECB942"/>
<path id="Vector_15" d="M50.7708 24.1641C50.7316 24.9525 50.5751 24.7948 49.44 24.3218C48.344 23.9276 48.2657 23.7699 48.1483 23.4546C48.2657 22.9815 48.2657 23.3757 49.9488 23.6122C50.2228 23.6911 50.4968 23.8488 50.7708 24.1641Z" fill="#ECB942"/>
<path id="Vector_16" d="M34.2924 3.51815C34.4882 3.28162 34.6839 3.4393 34.9187 3.36046C35.0753 3.20278 35.3101 2.96626 35.4667 2.72974C37.2672 2.96626 37.2672 2.88742 37.228 3.28162C37.228 3.36046 37.0715 3.51815 37.0323 3.51815C35.9755 3.36046 35.9755 4.07003 35.2318 3.83351C34.9578 3.67583 34.6447 3.67583 34.2924 3.51815Z" fill="#ECB942"/>
<path id="Vector_17" d="M35.6232 24.4794C35.3884 25.1104 35.2318 24.4005 34.6838 24.5583C34.4881 24.6372 34.2533 24.7949 34.0576 24.716C33.6662 24.5583 33.2748 24.6371 32.8834 24.4005C32.3354 24.0061 34.0967 23.9272 35.5841 24.1639C35.5841 24.3216 35.5841 24.4005 35.6232 24.4794Z" fill="#ECB942"/>
<path id="Vector_18" d="M47.0132 25.661C48.07 25.2668 48.2266 25.3457 48.6572 25.7399C48.6572 25.8975 48.6572 26.1341 48.618 26.2917C48.5397 26.8436 48.1875 26.6071 48.1483 26.5283C47.8352 25.8975 47.4829 25.8975 47.0132 25.661Z" fill="#ECB942"/>
<path id="Vector_19" d="M45.4085 0.759883C45.6042 -0.344307 45.7999 0.4444 47.6395 0.602142C46.8175 0.838754 45.9173 0.917625 45.4085 0.759883Z" fill="#ECB942"/>
<path id="Vector_20" d="M68.3842 5.56714C68.1494 6.0404 67.9145 5.25163 67.6014 5.56714C67.4448 5.72489 67.2491 5.48826 67.0534 5.64602C67.0534 5.64602 66.936 5.33051 67.0534 5.25163C67.3665 5.09388 68.3842 4.77838 68.3842 5.56714Z" fill="#ECB942"/>
<path id="Vector_21" d="M21.9631 28.419C22.1979 27.7886 23.059 28.5766 23.8027 27.8674C23.881 27.7886 23.9201 28.3402 23.6853 28.4978C23.3721 28.6554 23.059 28.3402 22.3153 28.6554C22.2371 28.6554 22.0805 28.6554 21.9631 28.419Z" fill="#ECB942"/>
<path id="Vector_22" d="M70.0281 5.4094C70.263 4.93613 70.8501 5.01501 71.1632 5.25164C71.2023 5.25164 71.2806 5.48828 71.3198 5.64603C71.124 5.88267 70.9283 5.72491 70.7718 5.80379C70.6152 5.88267 70.4587 5.56715 70.3412 5.48828C70.2238 5.33052 70.1064 5.33052 70.0281 5.4094Z" fill="#ECB942"/>
<path id="Vector_23" d="M10.2208 26.8433C9.98592 27.2375 9.35966 26.9222 9.00739 26.528C8.96825 26.528 8.88997 26.2126 9.00739 26.1337C9.28138 25.9761 9.59451 26.4491 9.86849 26.2126C9.98592 26.3703 10.1816 26.3703 10.2208 26.8433Z" fill="#ECB942"/>
<path id="Vector_24" d="M55.8591 0.760044C56.4853 -0.816661 57.1507 0.523538 56.9159 0.681209C56.681 0.917714 56.8767 0.838879 55.8591 0.760044Z" fill="#ECB942"/>
<path id="Vector_25" d="M77.8563 25.9766C77.6215 26.2132 77.4258 25.9766 77.1909 25.6611C77.6606 25.3456 77.6998 25.3456 77.8563 25.9766Z" fill="#ECB942"/>
<path id="Vector_26" d="M27.1297 26.2917C26.6991 26.9224 26.7382 27.0012 26.5425 26.4493C26.5425 26.2128 26.5817 25.9763 26.5817 25.661C26.5817 25.4245 26.6991 25.3456 26.7382 25.4245C26.8948 25.661 27.0122 25.9763 27.1297 26.2917Z" fill="#ECB942"/>
<path id="Vector_27" d="M42.9035 28.7342C43.1774 28.4977 43.06 28.34 43.608 29.3649C43.334 29.5226 43.0992 29.5226 42.8643 29.3649C42.8252 29.3649 42.786 29.2072 42.7469 29.1284C42.7469 29.1284 42.6686 29.2861 42.9035 28.7342Z" fill="#ECB942"/>
<path id="Vector_28" d="M76.6821 25.6612C76.6429 26.1344 76.6429 26.1344 76.5255 26.2133C76.3298 26.2133 76.1733 25.9767 76.095 25.5823C76.2907 25.5034 76.4864 25.3457 76.6821 25.6612Z" fill="#ECB942"/>
<path id="Vector_29" d="M14.722 24.3212C13.7435 24.4 13.8609 24.4787 13.8218 24.1637C13.7826 24.0062 14.0175 24.0849 14.722 24.1637C14.722 24.1637 14.722 24.2425 14.722 24.3212Z" fill="#ECB942"/>
<path id="Vector_30" d="M65.9575 5.33042C66.3097 4.93604 66.3489 4.93604 66.5837 5.48818C66.2315 6.04031 65.8792 5.09379 65.9575 5.33042Z" fill="#ECB942"/>
<path id="Vector_31" d="M80.1265 5.25147C80.3613 4.93595 80.7527 5.17259 80.5962 5.33035C80.5179 5.40923 80.4396 5.64586 80.3222 5.64586C80.2439 5.64586 80.1265 5.56699 80.1265 5.25147Z" fill="#ECB942"/>
<path id="Vector_32" d="M7.01123 26.6067C7.1678 26.2912 7.3635 26.449 7.52007 26.6067C7.55921 27.5533 7.32436 27.2378 7.01123 26.6067Z" fill="#ECB942"/>
<path id="Vector_33" d="M38.4805 23.0602C37.6585 23.0602 37.8151 23.0602 37.7368 22.9815C37.8151 22.8242 37.6585 22.8242 38.4805 22.9815V23.0602Z" fill="#ECB942"/>
<path id="Vector_34" d="M21.8848 22.7456C21.5717 23.14 21.4934 23.3767 21.3368 22.5879C21.8065 21.9568 21.8457 22.9823 21.8848 22.7456Z" fill="#ECB942"/>
<path id="Vector_35" d="M26.4251 27.5523C26.5426 27.2369 26.6991 27.2369 26.8166 27.3158C26.8557 27.3158 26.8557 27.4734 26.8948 27.5523C26.934 27.71 26.6208 27.71 26.5426 27.71C26.5034 27.71 26.4643 27.5523 26.4251 27.5523Z" fill="#ECB942"/>
<path id="Vector_36" d="M11.0819 7.22161C10.8862 7.22161 10.6122 7.37929 10.6905 6.9851C10.7687 6.66976 11.0036 6.7486 11.0819 7.22161Z" fill="#ECB942"/>
<path id="Vector_37" d="M18.049 22.6665C17.9707 23.0607 17.6576 23.1396 17.6576 22.9031C17.6576 22.8242 17.6576 22.7454 17.6967 22.7454C17.8141 22.5089 17.8141 22.5089 18.049 22.6665Z" fill="#ECB942"/>
<path id="Vector_38" d="M43.6863 28.4979C43.7646 28.0248 43.9603 28.1037 43.9603 28.2614C43.9603 28.3402 43.9603 28.4979 43.9211 28.5767C43.8428 28.6555 43.7646 28.6555 43.6863 28.4979Z" fill="#ECB942"/>
<path id="Vector_39" d="M80.3613 3.99041C80.2047 4.14787 80.0873 4.14787 79.9307 3.99041C80.0873 3.83295 80.2439 3.83295 80.3613 3.99041Z" fill="#ECB942"/>
<path id="Vector_40" d="M54.2935 0.760256C53.9803 0.681519 54.0195 0.681519 54.0195 0.681519C54.3326 0.681519 54.2935 0.681519 54.2935 0.760256Z" fill="#ECB942"/>
<path id="Vector_41" d="M39.9287 24.8729C40.0461 24.9517 40.007 25.1878 39.9287 25.1091C39.8504 25.1091 39.8113 25.0304 39.8504 24.8729C39.8504 24.9517 39.8896 24.9517 39.9287 24.8729Z" fill="#ECB942"/>
<path id="Vector_42" d="M90.1857 18.3326C90.2248 18.175 89.9117 18.4115 89.716 17.8596C89.5986 18.0961 90.0291 17.7808 90.1857 18.3326Z" fill="#ECB942"/>
<path id="Vector_43" d="M76.6821 5.64516C76.6038 5.64516 76.5647 5.33028 76.6821 5.409C76.7212 5.409 76.7604 5.48772 76.7995 5.56644C76.7995 5.56644 76.7212 5.64516 76.6821 5.64516Z" fill="#ECB942"/>
<path id="Vector_44" d="M7.40261 4.69964C7.28519 4.85701 7.36347 4.93569 7.20691 4.69964C7.36347 4.62095 7.32433 4.62095 7.40261 4.69964Z" fill="#ECB942"/>
<path id="Vector_45" d="M80.8701 4.14819C81.1441 4.38438 80.7136 4.54185 80.7918 4.22692C80.831 4.22692 80.8701 4.22692 80.8701 4.14819Z" fill="#ECB942"/>
<path id="Vector_46" d="M40.7116 2.96619C40.7899 3.04509 40.8681 3.124 40.829 3.20291C40.7116 3.59745 40.4767 3.20291 40.555 3.04509C40.5942 3.04509 40.6724 2.96619 40.7116 2.96619Z" fill="#ECB942"/>
<path id="Vector_47" d="M33.7445 26.449C33.7445 26.6855 33.6662 26.7644 33.5879 26.3702C33.5879 26.3702 33.6271 26.2914 33.6271 26.2125C33.6662 26.3702 33.7053 26.449 33.7445 26.449Z" fill="#ECB942"/>
<path id="Vector_48" d="M41.2595 3.20242L41.2204 3.12367C41.2595 3.12367 41.2595 3.04492 41.2986 3.04492C41.3378 3.12367 41.3378 3.20242 41.2595 3.20242Z" fill="#ECB942"/>
<path id="Vector_49" d="M1.84464 9.97944C1.88377 9.97944 1.88377 9.90076 1.92291 9.90076C2.04033 9.97944 1.96205 10.2155 1.88377 10.0581C1.84463 10.0581 1.84464 10.0581 1.84464 9.97944Z" fill="#ECB942"/>
<path id="Vector_50" d="M91.0859 31.8864C91.1635 31.8864 91.1635 31.8072 91.1635 31.9655L91.0859 31.8864Z" fill="#ECB942"/>
<path id="Vector_51" d="M91.6339 31.965C91.5948 31.965 91.5948 32.0437 91.5556 31.965C91.5165 31.8862 91.5165 31.8862 91.5948 31.8862C91.6339 31.8862 91.6339 31.8862 91.6339 31.965Z" fill="#ECB942"/>
<path id="Vector_52" d="M44.8598 23.6121C44.8598 23.6908 44.8598 23.6908 44.7822 23.6908L44.8598 23.6121Z" fill="#ECB942"/>
<path id="Vector_53" d="M17.227 22.5878C17.227 22.5878 17.227 22.6664 17.2662 22.6664C17.227 22.6664 17.227 22.7451 17.1879 22.7451C17.1096 22.6664 17.1487 22.5878 17.227 22.5878Z" fill="#ECB942"/>
<path id="Vector_54" d="M27.4033 25.5033C27.3256 25.5033 27.3644 25.5033 27.3644 25.4246L27.4033 25.5033Z" fill="#ECB942"/>
<path id="Vector_55" d="M24.311 27.5517C24.2334 27.4735 24.2334 27.4735 24.311 27.5517V27.5517Z" fill="#ECB942"/>
<path id="Vector_56" d="M33.4705 22.5878V22.6668C33.3922 22.7458 33.3922 22.6668 33.3531 22.5878C33.4313 22.5088 33.3922 22.5088 33.4705 22.5878Z" fill="#ECB942"/>
<path id="Vector_57" d="M27.7163 28.8919C27.6386 28.8129 27.6386 28.8129 27.7163 28.8919V28.8919Z" fill="#ECB942"/>
<path id="Vector_58" d="M39.6931 21.1689C39.6155 21.1689 39.5767 21.1689 39.6155 21.0116H39.6543C39.6931 21.1689 39.6543 21.2476 39.6931 21.1689Z" fill="#ECB942"/>
<path id="Vector_59" d="M11.7861 25.8185C11.7861 25.9767 11.8249 25.8976 11.7473 25.8976L11.7861 25.8185Z" fill="#ECB942"/>
<path id="Vector_60" d="M6.07184 26.4489C6.11166 26.528 6.11166 26.6071 6.07184 26.4489V26.4489Z" fill="#ECB942"/>
<path id="Vector_61" d="M5.60267 26.3701C5.56286 26.5277 5.56286 26.5277 5.60267 26.3701V26.3701Z" fill="#ECB942"/>
<path id="Vector_62" d="M84.5103 23.612C84.5103 23.5332 84.5491 23.4545 84.5491 23.4545C84.5879 23.4545 84.5879 23.5332 84.5103 23.612Z" fill="#ECB942"/>
<path id="Vector_63" d="M91.947 15.1012C91.9868 15.0229 91.9868 15.0229 91.947 15.1012V15.1012Z" fill="#ECB942"/>
<path id="Vector_64" d="M69.9888 5.3302C69.9503 5.48813 70.0272 5.3302 69.9888 5.3302V5.3302Z" fill="#ECB942"/>
<path id="Vector_65" d="M69.0886 5.56651C69.0886 5.40901 69.0498 5.40901 69.1274 5.48776L69.0886 5.56651Z" fill="#ECB942"/>
<path id="Vector_66" d="M56.0548 30.6255C56.094 30.5466 56.094 30.389 56.1331 30.3101C56.2505 30.0736 56.3288 30.7043 56.1722 30.7043C56.1331 30.7831 56.094 30.7043 56.0548 30.6255Z" fill="#ECB942"/>
<path id="Vector_67" d="M30.6523 23.5332C31.5134 23.218 31.4743 23.6908 31.8266 23.612C32.2962 23.4544 33.1182 24.006 33.3139 23.9272C33.5488 23.7696 33.7836 24.1636 34.0184 24.006C34.2533 23.8484 34.6838 24.3212 35.0361 24.4C35.271 24.4 35.5058 24.6364 35.7406 24.794C35.7798 24.8728 35.8189 25.0304 35.8581 25.2669C35.1535 26.2913 34.3316 25.0304 33.1573 25.3457C31.3569 25.8185 25.7597 24.9516 24.9769 24.5576C24.9769 24.4 24.9769 24.2424 25.016 24.0848C25.4466 23.8484 26.8948 23.7696 28.069 24.1636C29.3215 24.6364 29.6738 24.5576 30.1044 24.006C30.0652 23.8484 30.1435 24.3212 30.3001 24.4C30.9655 24.4788 30.6132 24.2424 30.848 24.5576C30.848 24.5576 30.8872 24.5576 30.8872 24.4788C30.7306 24.2424 30.7697 24.4 30.6523 23.5332Z" fill="#ECB942"/>
<path id="Vector_68" d="M41.3378 25.8189C41.5335 24.0845 41.7292 25.3459 43.5689 25.5824C42.7469 25.9766 41.8467 26.0554 41.3378 25.8189Z" fill="#ECB942"/>
<path id="Vector_69" d="M48.4223 24.8734C48.5789 24.6369 48.7746 24.7157 48.9703 24.7157C50.5359 24.8734 56.5636 23.9273 60.0863 23.8485C60.2429 23.8485 60.3995 23.8485 60.556 24.085C60.5169 24.1639 60.5169 24.1639 60.4777 24.2427C57.6987 25.3464 57.503 24.3215 56.7985 24.9522C48.1092 25.5829 48.5789 25.5829 48.4223 24.8734Z" fill="#ECB942"/>
</g>
</svg>
