<svg width="13" height="15" viewBox="0 0 13 15" fill="none" xmlns="http://www.w3.org/2000/svg">
<path id="Shape" fill-rule="evenodd" clip-rule="evenodd" d="M0.736711 3.19626C1.81035 1.39632 4.22726 2.19446 5.63265 2.8793C6.42064 3.25663 7.14131 3.76459 7.76511 4.38235C8.14275 3.36406 8.66015 2.38808 9.42179 1.68101C10.0648 1.08438 11.0594 0.798249 11.8832 1.09155C12.7055 1.38412 12.8319 2.05319 12.8883 2.75165C13.1679 6.19806 11.8902 9.66097 9.4465 12.6212C9.21709 12.9948 8.98203 13.3648 8.74556 13.7327C8.3665 14.3207 7.15311 14.5631 6.68935 14.0382C5.0856 12.221 3.58562 10.3437 2.24446 8.36947C1.28659 6.9582 -0.355277 5.02775 0.736711 3.19626Z" fill="#BF221F"/>
</svg>
